name rise30.6535peak61.5555fall82.9339.mot
datacolumns 19
datarows 24
range 9.37496500000000 9.41329700000000
endheader
time	ground_force1_vx	ground_force1_vy	ground_force1_vz	ground_force1_px	ground_force1_py	ground_force1_pz	ground_force2_vx	ground_force2_vy	ground_force2_vz	ground_force2_px	ground_force2_py	ground_force2_pz	ground_torque1_x	ground_torque1_y	ground_torque1_z	ground_torque2_x	ground_torque2_y	ground_torque2_z	
9.37496500000000	-0.85858900000000	711.66540299999997	44.31641300000000	0.19257400000000	0.00000000000000	0.10860600000000	0.00000000000000	0.00000000000000	0.00000000000000	0.00000000000000	0.00000000000000	0.00000000000000	0.00000000000000	16.73203300000000	0.00000000000000	0.00000000000000	0.00000000000000	0.00000000000000	
9.37664500000000	-1.40565300000000	711.92650700000002	44.35993200000000	0.19147000000000	0.00000000000000	0.10856700000000	0.00000000000000	0.00000000000000	0.00000000000000	0.00000000000000	0.00000000000000	0.00000000000000	0.00000000000000	16.79720400000000	0.00000000000000	0.00000000000000	0.00000000000000	0.00000000000000	
9.37829300000000	-1.95758000000000	712.21072000000004	44.40608400000000	0.19035900000000	0.00000000000000	0.10852900000000	0.00000000000000	0.00000000000000	0.00000000000000	0.00000000000000	0.00000000000000	0.00000000000000	0.00000000000000	16.86472500000000	0.00000000000000	0.00000000000000	0.00000000000000	0.00000000000000	
9.37996300000000	-2.51419600000000	712.51899500000002	44.45482400000000	0.18924200000000	0.00000000000000	0.10849100000000	0.00000000000000	0.00000000000000	0.00000000000000	0.00000000000000	0.00000000000000	0.00000000000000	0.00000000000000	16.93454300000000	0.00000000000000	0.00000000000000	0.00000000000000	0.00000000000000	
9.38162500000000	-3.07531400000000	712.85231499999998	44.50611300000000	0.18812000000000	0.00000000000000	0.10845300000000	0.00000000000000	0.00000000000000	0.00000000000000	0.00000000000000	0.00000000000000	0.00000000000000	0.00000000000000	17.00661000000000	0.00000000000000	0.00000000000000	0.00000000000000	0.00000000000000	
9.38329100000000	-3.64072800000000	713.21167700000001	44.55991700000000	0.18699300000000	0.00000000000000	0.10841500000000	0.00000000000000	0.00000000000000	0.00000000000000	0.00000000000000	0.00000000000000	0.00000000000000	0.00000000000000	17.08088000000000	0.00000000000000	0.00000000000000	0.00000000000000	0.00000000000000	
9.38495600000000	-4.21022100000000	713.59809900000005	44.61620700000000	0.18586300000000	0.00000000000000	0.10837700000000	0.00000000000000	0.00000000000000	0.00000000000000	0.00000000000000	0.00000000000000	0.00000000000000	0.00000000000000	17.15730600000000	0.00000000000000	0.00000000000000	0.00000000000000	0.00000000000000	
9.38663700000000	-4.78356100000000	714.01260200000002	44.67495900000000	0.18473100000000	0.00000000000000	0.10833900000000	0.00000000000000	0.00000000000000	0.00000000000000	0.00000000000000	0.00000000000000	0.00000000000000	0.00000000000000	17.23584400000000	0.00000000000000	0.00000000000000	0.00000000000000	0.00000000000000	
9.38829800000000	-5.36050300000000	714.45621400000005	44.73615200000000	0.18359700000000	0.00000000000000	0.10830100000000	0.00000000000000	0.00000000000000	0.00000000000000	0.00000000000000	0.00000000000000	0.00000000000000	0.00000000000000	17.31645000000000	0.00000000000000	0.00000000000000	0.00000000000000	0.00000000000000	
9.38997700000000	-5.94079300000000	714.92996100000005	44.79976600000000	0.18246300000000	0.00000000000000	0.10826300000000	0.00000000000000	0.00000000000000	0.00000000000000	0.00000000000000	0.00000000000000	0.00000000000000	0.00000000000000	17.39908200000000	0.00000000000000	0.00000000000000	0.00000000000000	0.00000000000000	
9.39163000000000	-6.52416700000000	715.43485999999996	44.86578800000000	0.18133000000000	0.00000000000000	0.10822400000000	0.00000000000000	0.00000000000000	0.00000000000000	0.00000000000000	0.00000000000000	0.00000000000000	0.00000000000000	17.48369500000000	0.00000000000000	0.00000000000000	0.00000000000000	0.00000000000000	
9.39330100000000	-7.11035000000000	715.97191299999997	44.93420200000000	0.18019900000000	0.00000000000000	0.10818500000000	0.00000000000000	0.00000000000000	0.00000000000000	0.00000000000000	0.00000000000000	0.00000000000000	0.00000000000000	17.57024600000000	0.00000000000000	0.00000000000000	0.00000000000000	0.00000000000000	
9.39496300000000	-7.69906200000000	716.54210599999999	45.00499900000000	0.17907100000000	0.00000000000000	0.10814600000000	0.00000000000000	0.00000000000000	0.00000000000000	0.00000000000000	0.00000000000000	0.00000000000000	0.00000000000000	17.65869000000000	0.00000000000000	0.00000000000000	0.00000000000000	0.00000000000000	
9.39663300000000	-8.29001600000000	717.14639499999998	45.07816600000000	0.17794700000000	0.00000000000000	0.10810600000000	0.00000000000000	0.00000000000000	0.00000000000000	0.00000000000000	0.00000000000000	0.00000000000000	0.00000000000000	17.74898200000000	0.00000000000000	0.00000000000000	0.00000000000000	0.00000000000000	
9.39829000000000	-8.88291900000000	717.78570800000000	45.15369500000000	0.17682900000000	0.00000000000000	0.10806600000000	0.00000000000000	0.00000000000000	0.00000000000000	0.00000000000000	0.00000000000000	0.00000000000000	0.00000000000000	17.84107400000000	0.00000000000000	0.00000000000000	0.00000000000000	0.00000000000000	
9.39995700000000	-9.47747600000000	718.46093399999995	45.23157700000000	0.17571800000000	0.00000000000000	0.10802600000000	0.00000000000000	0.00000000000000	0.00000000000000	0.00000000000000	0.00000000000000	0.00000000000000	0.00000000000000	17.93491600000000	0.00000000000000	0.00000000000000	0.00000000000000	0.00000000000000	
9.40162400000000	-10.07338600000000	719.17291899999998	45.31180300000000	0.17461500000000	0.00000000000000	0.10798500000000	0.00000000000000	0.00000000000000	0.00000000000000	0.00000000000000	0.00000000000000	0.00000000000000	0.00000000000000	18.03045700000000	0.00000000000000	0.00000000000000	0.00000000000000	0.00000000000000	
9.40329500000000	-10.67034800000000	719.92245900000000	45.39436700000000	0.17352100000000	0.00000000000000	0.10794300000000	0.00000000000000	0.00000000000000	0.00000000000000	0.00000000000000	0.00000000000000	0.00000000000000	0.00000000000000	18.12764400000000	0.00000000000000	0.00000000000000	0.00000000000000	0.00000000000000	
9.40496100000000	-11.26805900000000	720.71029799999997	45.47926000000000	0.17243700000000	0.00000000000000	0.10790000000000	0.00000000000000	0.00000000000000	0.00000000000000	0.00000000000000	0.00000000000000	0.00000000000000	0.00000000000000	18.22641900000000	0.00000000000000	0.00000000000000	0.00000000000000	0.00000000000000	
9.40663000000000	-11.86621500000000	721.53711599999997	45.56647600000000	0.17136400000000	0.00000000000000	0.10785700000000	0.00000000000000	0.00000000000000	0.00000000000000	0.00000000000000	0.00000000000000	0.00000000000000	0.00000000000000	18.32672200000000	0.00000000000000	0.00000000000000	0.00000000000000	0.00000000000000	
9.40829400000000	-12.46451300000000	722.40352900000005	45.65600900000000	0.17030400000000	0.00000000000000	0.10781300000000	0.00000000000000	0.00000000000000	0.00000000000000	0.00000000000000	0.00000000000000	0.00000000000000	0.00000000000000	18.42849000000000	0.00000000000000	0.00000000000000	0.00000000000000	0.00000000000000	
9.40996100000000	-13.06265100000000	723.31008399999996	45.74785100000000	0.16925700000000	0.00000000000000	0.10776800000000	0.00000000000000	0.00000000000000	0.00000000000000	0.00000000000000	0.00000000000000	0.00000000000000	0.00000000000000	18.53165600000000	0.00000000000000	0.00000000000000	0.00000000000000	0.00000000000000	
9.41162400000000	-13.66032900000000	724.25724700000001	45.84199800000000	0.16822400000000	0.00000000000000	0.10772200000000	0.00000000000000	0.00000000000000	0.00000000000000	0.00000000000000	0.00000000000000	0.00000000000000	0.00000000000000	18.63614800000000	0.00000000000000	0.00000000000000	0.00000000000000	0.00000000000000	
9.41329700000000	-14.25724800000000	725.24540700000000	45.93844400000000	0.16720700000000	0.00000000000000	0.10767600000000	0.00000000000000	0.00000000000000	0.00000000000000	0.00000000000000	0.00000000000000	0.00000000000000	0.00000000000000	18.74189200000000	0.00000000000000	0.00000000000000	0.00000000000000	0.00000000000000	
